HIERARCHY
ROOT Hips
{
	OFFSET 53.076099 -6.220855 91.555801
	CHANNELS 6 Xposition Yposition Zposition Xrotation Yrotation Zrotation
	JOINT spine
	{
		OFFSET 0.000000 -0.393702 6.846367
		CHANNELS 3 Xrotation Yrotation Zrotation
		JOINT spine1
		{
			OFFSET 0.000000 -0.000001 9.496208
			CHANNELS 3 Xrotation Yrotation Zrotation
			JOINT spine2
			{
				OFFSET 0.000000 -0.000001 9.099091
				CHANNELS 3 Xrotation Yrotation Zrotation
				JOINT Neck
				{
					OFFSET 0.000000 -1.113784 23.361206
					CHANNELS 3 Xrotation Yrotation Zrotation
					JOINT Head
					{
						OFFSET 0.000000 -0.000001 7.058014
						CHANNELS 3 Xrotation Yrotation Zrotation
						End Site
						{
							OFFSET 0.000000 5.634187 17.084396
						}
					}
				}
				JOINT RightShoulder
				{
					OFFSET -3.831360 0.533490 9.826309
					CHANNELS 3 Xrotation Yrotation Zrotation
					JOINT RightArm
					{
						OFFSET 0.000000 -0.000002 12.888107
						CHANNELS 3 Xrotation Yrotation Zrotation
						JOINT RightArmRoll
						{
							OFFSET 0.000000 -0.000001 6.506165
							CHANNELS 3 Xrotation Yrotation Zrotation
							JOINT RightForeArm
							{
								OFFSET 0.000000 -0.000003 18.950104
								CHANNELS 3 Xrotation Yrotation Zrotation
								JOINT RightForeArmRoll
								{
									OFFSET 0.000000 -0.000001 7.300919
									CHANNELS 3 Xrotation Yrotation Zrotation
									JOINT RightHand
									{
										OFFSET 0.000000 -0.000002 14.651398
										CHANNELS 3 Xrotation Yrotation Zrotation
										End Site
										{
											OFFSET 0.000000 0.000000 0.100006
										}
									}
								}
							}
						}
					}
				}
				JOINT LeftShoulder
				{
					OFFSET 3.831360 0.533490 9.826309
					CHANNELS 3 Xrotation Yrotation Zrotation
					JOINT LeftArm
					{
						OFFSET 0.000000 -0.000002 12.888107
						CHANNELS 3 Xrotation Yrotation Zrotation
						JOINT LeftArmRoll
						{
							OFFSET 0.000000 -0.000001 6.506165
							CHANNELS 3 Xrotation Yrotation Zrotation
							JOINT LeftForeArm
							{
								OFFSET 0.000000 -0.000003 18.950104
								CHANNELS 3 Xrotation Yrotation Zrotation
								JOINT LeftForeArmRoll
								{
									OFFSET 0.000000 -0.000001 7.300919
									CHANNELS 3 Xrotation Yrotation Zrotation
									JOINT LeftHand
									{
										OFFSET 0.000000 -0.000002 14.651398
										CHANNELS 3 Xrotation Yrotation Zrotation
										End Site
										{
											OFFSET 0.000000 0.000000 0.100006
										}
									}
								}
							}
						}
					}
				}
			}
		}
	}
	JOINT RightUpLeg
	{
		OFFSET -6.068371 0.933477 -1.112778
		CHANNELS 3 Xrotation Yrotation Zrotation
		JOINT RightUpLegRoll
		{
			OFFSET 0.000000 -0.000003 17.179596
			CHANNELS 3 Xrotation Yrotation Zrotation
			JOINT RightLeg
			{
				OFFSET 0.000000 0.000003 -21.274300
				CHANNELS 3 Xrotation Yrotation Zrotation
				JOINT RightLegRoll
				{
					OFFSET 0.000000 -0.000003 21.343903
					CHANNELS 3 Xrotation Yrotation Zrotation
					JOINT RightFoot
					{
						OFFSET 0.000000 -0.000003 17.765198
						CHANNELS 3 Xrotation Yrotation Zrotation
						JOINT RightToeBase
						{
							OFFSET 0.000000 -0.000002 14.850807
							CHANNELS 3 Xrotation Yrotation Zrotation
							End Site
							{
								OFFSET 0.006294 0.829004 7.192139
							}
						}
					}
				}
			}
		}
	}
	JOINT LeftUpLeg
	{
		OFFSET 6.068371 0.933477 -1.112778
		CHANNELS 3 Xrotation Yrotation Zrotation
		JOINT LeftUpLegRoll
		{
			OFFSET 0.000000 -0.000003 17.179703
			CHANNELS 3 Xrotation Yrotation Zrotation
			JOINT LeftLeg
			{
				OFFSET 0.000000 -0.000003 21.274200
				CHANNELS 3 Xrotation Yrotation Zrotation
				JOINT LeftLegRoll
				{
					OFFSET 0.000000 -0.000003 21.541199
					CHANNELS 3 Xrotation Yrotation Zrotation
					JOINT LeftFoot
					{
						OFFSET 0.000000 -0.000003 17.567902
						CHANNELS 3 Xrotation Yrotation Zrotation
						JOINT LeftToeBase
						{
							OFFSET 0.000000 -0.000002 14.850800
							CHANNELS 3 Xrotation Yrotation Zrotation
							End Site
							{
								OFFSET -0.028210 0.829004 7.192139
							}
						}
					}
				}
			}
		}
	}
}
MOTION
Frames: 9
Frame Time: 0.041667
53.155701 -6.259560 91.663895 -1.848858 -0.555572 -1.037844 -1.979822 -0.102833 -0.227208 0.042764 -0.210699 -0.457016 1.687821 -0.216351 -0.454522 20.294264 8.670840 -0.951017 -4.301183 -6.787687 -0.724614 18.023462 -67.712890 19.001964 -12.212947 -105.703427 6.311752 0.000002 0.000001 -0.000001 10.945993 -7.180442 -0.510090 -0.000002 -0.000000 -3.006330 -5.000202 -7.999072 0.000099 15.525157 73.959296 -15.042561 -23.529491 102.523264 -2.805667 0.000001 -0.000000 0.000003 5.880554 9.969527 -0.041649 -0.000005 -0.000005 3.007470 -5.000202 7.998784 -0.000154 -0.942887 -174.839701 1.848416 -179.999991 0.000006 -1.069001 175.677151 -2.779083 -0.204998 0.000003 0.000002 0.041317 68.985669 6.910541 2.084091 25.456959 -7.355624 0.000004 3.269632 176.049424 0.495230 -0.000005 -0.000005 -1.153010 -3.977934 1.046852 0.136866 0.000001 0.000001 -0.037545 69.102738 -6.917790 -2.060923 25.456960 7.355615 0.000001 
53.157200 -6.255908 91.666702 -1.839576 -0.558199 -1.038708 -1.982030 -0.102774 -0.227536 0.038351 -0.209809 -0.457669 1.683411 -0.215455 -0.455180 20.249781 8.683217 -0.945638 -4.270186 -6.799718 -0.720312 17.951484 -67.701901 18.925124 -12.225764 -105.706186 6.342831 0.000002 0.000000 -0.000001 10.929572 -7.147737 -0.515160 -0.000004 -0.000000 -3.006330 -5.000205 -7.999073 0.000098 15.476814 73.962336 -14.990136 -23.606903 102.518496 -2.753050 0.000000 0.000001 0.000005 5.848443 9.947460 -0.039202 -0.000005 -0.000006 3.007470 -5.000202 7.998783 -0.000154 -0.955866 -174.836724 1.847309 -179.999991 0.000005 -1.069001 175.672261 -2.779066 -0.205235 0.000003 0.000002 0.041318 68.987042 6.910546 2.084107 25.456962 -7.355625 0.000005 3.261369 176.053385 0.500774 -0.000005 -0.000004 -1.153010 -3.973460 1.045132 0.136864 0.000001 0.000001 -0.037545 69.104439 -6.917805 -2.060920 25.456964 7.355613 0.000000 
53.157101 -6.237508 91.665298 -1.829507 -0.561069 -1.040001 -1.984432 -0.102680 -0.227822 0.033569 -0.208831 -0.458240 1.678621 -0.214469 -0.455754 20.206131 8.696151 -0.940198 -4.240066 -6.812336 -0.715916 17.881987 -67.691232 18.850989 -12.238350 -105.707921 6.373374 0.000001 -0.000000 -0.000001 10.913478 -7.115679 -0.520127 -0.000002 -0.000001 -3.006329 -5.000204 -7.999072 0.000098 15.430325 73.965956 -14.939610 -23.683742 102.512615 -2.700389 0.000001 -0.000000 0.000004 5.817023 9.926194 -0.036868 -0.000006 -0.000006 3.007468 -5.000201 7.998783 -0.000154 -0.970046 -174.834743 1.846219 -179.999991 0.000006 -1.069001 175.666960 -2.778052 -0.205416 0.000003 0.000002 0.041318 68.988524 6.910559 2.084015 25.456957 -7.355624 0.000005 3.252347 176.058344 0.506734 -0.000005 -0.000005 -1.153010 -3.968888 1.043342 0.136862 0.000001 0.000001 -0.037545 69.106133 -6.917823 -2.060917 25.456959 7.355613 0.000001 
53.155106 -6.241396 91.667290 -1.818896 -0.564110 -1.041574 -1.986950 -0.102563 -0.228077 0.028529 -0.207790 -0.458749 1.673582 -0.213420 -0.456268 20.163009 8.709472 -0.934699 -4.210548 -6.825389 -0.711451 17.814098 -67.680570 18.778593 -12.249499 -105.710592 6.404750 0.000002 0.000000 -0.000001 10.897798 -7.084078 -0.524963 -0.000002 -0.000000 -3.006328 -5.000206 -7.999071 0.000098 15.385158 73.969986 -14.890434 -23.758956 102.506598 -2.648914 0.000001 0.000000 0.000003 5.786102 9.905479 -0.034622 -0.000005 -0.000006 3.007470 -5.000201 7.998783 -0.000154 -0.985064 -174.831751 1.845115 -179.999991 0.000006 -1.069001 175.661428 -2.777037 -0.205610 0.000003 0.000002 0.041318 68.990006 6.910571 2.084025 25.456957 -7.355624 0.000004 3.242786 176.063303 0.512945 -0.000005 -0.000005 -1.153010 -3.964256 1.041513 0.136861 0.000001 0.000001 -0.037545 69.107922 -6.917810 -2.061004 25.456960 7.355613 0.000000 
53.152500 -6.241315 91.667297 -1.807966 -0.567249 -1.043325 -1.989552 -0.102432 -0.228316 0.023341 -0.206715 -0.459226 1.668401 -0.212335 -0.456749 20.120202 8.723012 -0.929166 -4.181388 -6.838678 -0.706943 17.747270 -67.670072 18.707355 -12.261032 -105.712265 6.435406 0.000002 0.000000 -0.000001 10.882234 -7.052737 -0.529749 -0.000004 -0.000000 -3.006329 -5.000202 -7.999072 0.000098 15.340639 73.974159 -14.841928 -23.833272 102.500505 -2.598109 0.000001 0.000000 0.000002 5.755460 9.885102 -0.032430 -0.000005 -0.000006 3.007472 -5.000202 7.998785 -0.000155 -1.000566 -174.828773 1.843997 -179.999991 0.000005 -1.069002 175.655704 -2.776007 -0.204799 0.000003 0.000002 0.041318 68.991591 6.910551 2.084023 25.456957 -7.355625 0.000004 3.232919 176.069258 0.519355 -0.000005 -0.000005 -1.153010 -3.959572 1.039653 0.136860 0.000001 0.000001 -0.037545 69.109821 -6.917805 -2.060884 25.456964 7.355613 0.000000 
53.152401 -6.238458 91.664192 -1.796958 -0.570413 -1.045115 -1.992180 -0.102298 -0.228551 0.018117 -0.205631 -0.459694 1.663171 -0.211241 -0.457222 20.077594 8.736599 -0.923625 -4.152310 -6.852016 -0.702411 17.680711 -67.659526 18.636420 -12.271698 -105.714909 6.466856 0.000002 0.000000 -0.000002 10.866778 -7.021459 -0.534502 -0.000004 -0.000001 -3.006329 -5.000204 -7.999071 0.000098 15.296202 73.978312 -14.793495 -23.907392 102.494420 -2.547505 0.000001 -0.000000 0.000002 5.724892 9.864800 -0.030272 -0.000004 -0.000007 3.007468 -5.000203 7.998783 -0.000155 -1.016180 -174.825809 1.842886 -179.999991 0.000005 -1.069002 175.649967 -2.774993 -0.205001 0.000003 0.000002 0.041318 68.993073 6.910562 2.084034 25.456959 -7.355625 0.000004 3.222977 176.074204 0.525742 -0.000005 -0.000005 -1.153010 -3.954889 1.037784 0.136860 0.000002 0.000001 -0.037545 69.111611 -6.917793 -2.060970 25.456962 7.355614 0.000001 
53.152199 -6.242249 91.664696 -1.786107 -0.573529 -1.046825 -1.994762 -0.102171 -0.228794 0.012964 -0.204564 -0.460179 1.658021 -0.210165 -0.457710 20.034681 8.750080 -0.918054 -4.123049 -6.865236 -0.697883 17.613753 -67.648891 18.565042 -12.282519 -105.717559 6.498360 0.000001 0.000000 -0.000002 10.851121 -6.990055 -0.539277 -0.000003 -0.000001 -3.006330 -5.000203 -7.999072 0.000098 15.251415 73.982396 -14.744705 -23.982061 102.488389 -2.496345 0.000001 0.000000 0.000003 5.694184 9.844339 -0.028113 -0.000005 -0.000006 3.007470 -5.000203 7.998783 -0.000156 -1.031569 -174.822831 1.841765 -179.999991 0.000005 -1.069001 175.644311 -2.773978 -0.205199 0.000003 0.000002 0.041318 68.994637 6.910546 2.084032 25.456955 -7.355625 0.000005 3.213192 176.079149 0.532054 -0.000005 -0.000005 -1.153010 -3.950216 1.035934 0.136860 0.000002 0.000001 -0.037545 69.113414 -6.917816 -2.060962 25.456962 7.355615 0.000000 
53.150299 -6.239268 91.673996 -1.775657 -0.576524 -1.048313 -1.997250 -0.102060 -0.229059 0.007999 -0.203541 -0.460706 1.653051 -0.209133 -0.458241 19.991438 8.763270 -0.912495 -4.093355 -6.878155 -0.693381 17.545636 -67.638066 18.492411 -12.294582 -105.719266 6.529001 0.000002 0.000001 -0.000000 10.835361 -6.958314 -0.544070 -0.000002 -0.000000 -3.006328 -5.000206 -7.999073 0.000098 15.205721 73.986201 -14.695000 -24.057946 102.482494 -2.444301 0.000001 0.000000 0.000005 5.663140 9.823476 -0.025939 -0.000006 -0.000006 3.007470 -5.000202 7.998782 -0.000154 -1.046344 -174.819867 1.840647 -179.999991 0.000005 -1.069001 175.638820 -2.773957 -0.205466 0.000003 0.000002 0.041318 68.996126 6.910558 2.084042 25.456957 -7.355624 0.000004 3.203783 176.084107 0.538186 -0.000005 -0.000004 -1.153010 -3.945603 1.034114 0.136860 0.000001 0.000001 -0.037545 69.115210 -6.917802 -2.060947 25.456962 7.355613 0.000001 
53.148106 -6.230138 91.671089 -1.765829 -0.579323 -1.049470 -1.999593 -0.101977 -0.229358 0.003328 -0.202589 -0.461299 1.648381 -0.208174 -0.458838 19.947564 8.776012 -0.906958 -4.062963 -6.890584 -0.688929 17.475770 -67.627090 18.417889 -12.306574 -105.721991 6.560365 0.000002 0.000000 -0.000001 10.819295 -6.926055 -0.548943 -0.000005 -0.000000 -3.006329 -5.000205 -7.999073 0.000098 15.158541 73.989595 -14.643762 -24.133930 102.477706 -2.392745 0.000001 0.000000 0.000002 5.631542 9.801970 -0.023723 -0.000004 -0.000006 3.007471 -5.000201 7.998782 -0.000156 -1.060167 -174.817886 1.839552 -179.999991 0.000006 -1.069001 175.633656 -2.772944 -0.205639 0.000003 0.000002 0.041318 68.997594 6.910534 2.084045 25.456957 -7.355623 0.000004 3.194990 176.089066 0.544027 -0.000005 -0.000005 -1.153010 -3.941050 1.032353 0.136860 0.000001 0.000001 -0.037545 69.116911 -6.917821 -2.060945 25.456960 7.355614 -0.000000 
